<svg xmlns="http://www.w3.org/2000/svg" width="64" height="64" viewBox="0 0 64 64" role="img" aria-label="Open Agent favicon">
  <defs>
    <linearGradient id="g" x1="0" y1="0" x2="1" y2="1">
      <stop offset="0" stop-color="#3B82F6"/>
      <stop offset="1" stop-color="#60A5FA"/>
    </linearGradient>
    <path id="sparkle" d="M32 6 C35 14, 38 22, 40 26 C43 29, 50 31, 58 32 C50 33, 43 35, 40 38 C38 42, 35 50, 32 58 C29 50, 26 42, 24 38 C21 35, 14 33, 6 32 C14 31, 21 29, 24 26 C26 22, 29 14, 32 6 Z"/>
  </defs>
  <rect width="64" height="64" rx="16" fill="#0A0F1E"/>
  <rect x="2" y="2" width="60" height="60" rx="14" fill="none" stroke="url(#g)" stroke-opacity="0.5" stroke-width="2"/>
  <use href="#sparkle" fill="url(#g)"/>
</svg>
